:FULLY-SPECIFIED
:FORCE-ALL-JOINTS-BE-3DOF
:DEGREES
1020
root 0.249929 13.5522 -35.3933 12.2032 -28.3289 -17.633
lfemur -69.9509 36.091 -4.19248
ltibia 82.2866 -0 0
lfoot -12.8648 -8.22552 0.00505077
ltoes -6.46879 0 0
rfemur 10.2455 -8.56033 8.58919
rtibia 36.3217 -0 0
rfoot -22.4402 -26.1971 0.000569251
rtoes -31.7622 0 0
lowerback 10.2604 -0.78431 5.36468
upperback -1.78424 0.159967 8.13367
thorax -7.72189 0.00457022 5.66672
lowerneck -5.5166 8.32343 3.41335
upperneck 8.18532 10.9216 -0.778256
head 3.89865 5.47295 -0.272103
lclavicle -6.97237e-14 5.08889e-14 0
lhumerus 83.6494 -7.24026 26.4587
lradius 96.655 -0 0
lwrist 9.3065 0 0
lhand -37.2888 29.9795 -0.0329753
lfingers 7.12502 -0 0
lthumb -10.3535 59.7109 -0.0326872
rclavicle -6.97237e-14 5.08889e-14 0
rhumerus -77.3854 22.8554 -94.9497
rradius 111.992 -0 0
rwrist -63.1106 0 0
rhand -10.3159 -25.1069 0.000577948
rfingers 7.12502 -0 0
rthumb 15.6794 -54.4916 0.000550832
1021
root 0.248651 13.5484 -35.3853 12.2151 -28.3027 -17.6353
lfemur -69.9793 36.0854 -4.20475
ltibia 82.2917 -0 0
lfoot -12.86 -8.26232 0.00453583
ltoes -6.42038 0 0
rfemur 10.2615 -8.56332 8.60632
rtibia 36.2909 -0 0
rfoot -22.4251 -26.2082 0.00062885
rtoes -31.7735 0 0
lowerback 10.2536 -0.790014 5.35743
upperback -1.79611 0.152434 8.14335
thorax -7.73057 0.00142902 5.68334
lowerneck -5.48879 8.33638 3.38508
upperneck 8.19272 10.9427 -0.780561
head 3.89451 5.48265 -0.268325
lclavicle -6.97237e-14 5.08889e-14 0
lhumerus 83.6201 -7.41542 26.5125
lradius 96.5293 -0 0
lwrist 9.33651 0 0
lhand -37.2497 29.9457 -0.0298682
lfingers 7.12502 -0 0
lthumb -10.3157 59.6784 -0.0296114
rclavicle -6.97237e-14 5.08889e-14 0
rhumerus -77.4162 22.9067 -94.9701
rradius 111.99 -0 0
rwrist -63.118 0 0
rhand -10.3091 -25.0828 0.000566607
rfingers 7.12502 -0 0
rthumb 15.6859 -54.467 0.000540263
1022
root 0.247372 13.5447 -35.3773 12.2274 -28.2769 -17.6381
lfemur -70.007 36.0799 -4.21359
ltibia 82.3005 -0 0
lfoot -12.8572 -8.3012 0.00397884
ltoes -6.36317 0 0
rfemur 10.2773 -8.56903 8.6221
rtibia 36.2636 -0 0
rfoot -22.4142 -26.2177 0.000673707
rtoes -31.7865 0 0
lowerback 10.2466 -0.796454 5.35066
upperback -1.80732 0.143897 8.15318
thorax -7.73839 -0.00222909 5.69998
lowerneck -5.45101 8.3487 3.35917
upperneck 8.19354 10.9635 -0.788338
head 3.8867 5.49212 -0.267315
lclavicle -6.97237e-14 5.08889e-14 0
lhumerus 83.585 -7.60689 26.5899
lradius 96.3772 -0 0
lwrist 9.38091 0 0
lhand -37.1985 29.9253 -0.0262367
lfingers 7.12502 -0 0
lthumb -10.2663 59.6598 -0.0260163
rclavicle -6.97237e-14 5.08889e-14 0
rhumerus -77.4474 22.9588 -94.9912
rradius 111.981 -0 0
rwrist -63.1237 0 0
rhand -10.3012 -25.0617 0.000543734
rfingers 7.12502 -0 0
rthumb 15.6935 -54.4452 0.000518726
1023
root 0.246094 13.5409 -35.3693 12.2398 -28.2522 -17.6411
lfemur -70.0349 36.0759 -4.21943
ltibia 82.3166 -0 0
lfoot -12.8599 -8.34109 0.00340266
ltoes -6.30198 0 0
rfemur 10.2941 -8.57748 8.63488
rtibia 36.2399 -0 0
rfoot -22.4085 -26.2253 0.000698568
rtoes -31.7989 0 0
lowerback 10.2388 -0.803204 5.34344
upperback -1.81792 0.134699 8.16249
thorax -7.74498 -0.00620446 5.71636
lowerneck -5.40262 8.36003 3.33644
upperneck 8.18682 10.9835 -0.802117
head 3.87487 5.50111 -0.269452
lclavicle -6.97237e-14 5.08889e-14 0
lhumerus 83.5442 -7.77297 26.6992
lradius 96.1919 -0 0
lwrist 9.43148 0 0
lhand -37.1372 29.9144 -0.022271
lfingers 7.12502 -0 0
lthumb -10.2072 59.6511 -0.0220898
rclavicle -6.97237e-14 5.08889e-14 0
rhumerus -77.4789 23.0114 -95.0132
rradius 111.979 -0 0
rwrist -63.1318 0 0
rhand -10.2921 -25.0433 0.000509627
rfingers 7.12502 -0 0
rthumb 15.7023 -54.4262 0.000486485
1024
root 0.244816 13.5371 -35.3614 12.2522 -28.2293 -17.6441
lfemur -70.0636 36.0748 -4.22266
ltibia 82.3438 -0 0
lfoot -12.8713 -8.38092 0.00282529
ltoes -6.23897 0 0
rfemur 10.313 -8.58869 8.64301
rtibia 36.2198 -0 0
rfoot -22.4089 -26.2306 0.000698314
rtoes -31.7911 0 0
lowerback 10.2293 -0.809835 5.33482
upperback -1.82794 0.12518 8.17063
thorax -7.74997 -0.0102978 5.73222
lowerneck -5.34296 8.36999 3.31769
upperneck 8.17161 11.0022 -0.822432
head 3.85864 5.50937 -0.275114
lclavicle -6.97237e-14 5.08889e-14 0
lhumerus 83.4979 -7.87193 26.8488
lradius 95.9668 -0 0
lwrist 9.47999 0 0
lhand -37.0675 29.9092 -0.0181601
lfingers 7.12502 -0 0
lthumb -10.14 59.6484 -0.0180187
rclavicle -6.97237e-14 5.08889e-14 0
rhumerus -77.5106 23.0642 -95.0363
rradius 111.974 -0 0
rwrist -63.1429 0 0
rhand -10.2818 -25.0275 0.000464692
rfingers 7.12502 -0 0
rthumb 15.7122 -54.4097 0.000443904
1025
root 0.243537 13.5334 -35.3534 12.2646 -28.2087 -17.6467
lfemur -70.0938 36.078 -4.22369
ltibia 82.3858 -0 0
lfoot -12.8948 -8.41963 0.00226047
ltoes -6.17629 0 0
rfemur 10.3354 -8.60267 8.64483
rtibia 36.2033 -0 0
rfoot -22.4165 -26.2333 0.000668309
rtoes -31.7794 0 0
lowerback 10.2174 -0.815921 5.32385
upperback -1.83743 0.115682 8.17697
thorax -7.75297 -0.0143099 5.74726
lowerneck -5.27141 8.37821 3.30375
upperneck 8.14693 11.019 -0.849816
head 3.83762 5.51666 -0.284681
lclavicle -6.97237e-14 5.08889e-14 0
lhumerus 83.4466 -7.86201 27.0467
lradius 95.695 -0 0
lwrist 9.51821 0 0
lhand -36.9915 29.9057 -0.0140868
lfingers 7.12502 -0 0
lthumb -10.0665 59.6477 -0.0139839
rclavicle -6.97237e-14 5.08889e-14 0
rhumerus -77.5426 23.117 -95.0605
rradius 111.963 -0 0
rwrist -63.1577 0 0
rhand -10.2703 -25.0142 0.000409423
rfingers 7.12502 -0 0
rthumb 15.7233 -54.3955 0.000391427
1026
root 0.242259 13.5296 -35.3454 12.2768 -28.191 -17.6487
lfemur -70.1262 36.0871 -4.22293
ltibia 82.4462 -0 0
lfoot -12.9339 -8.45614 0.00171875
ltoes -6.11611 0 0
rfemur 10.3623 -8.61943 8.63869
rtibia 36.1867 -0 0
rfoot -22.4323 -26.233 0.00060481
rtoes -31.7562 0 0
lowerback 10.2025 -0.821037 5.30958
upperback -1.84643 0.106547 8.18085
thorax -7.75362 -0.0180418 5.76123
lowerneck -5.1873 8.38431 3.29542
upperneck 8.11183 11.0334 -0.8848
head 3.81146 5.52271 -0.298529
lclavicle -6.97237e-14 5.08889e-14 0
lhumerus 83.3914 -7.70143 27.3008
lradius 95.37 -0 0
lwrist 9.53791 0 0
lhand -36.9108 29.9 -0.0102253
lfingers 7.12502 -0 0
lthumb -9.98872 59.6451 -0.0101574
rclavicle -6.97237e-14 5.08889e-14 0
rhumerus -77.5746 23.1693 -95.0859
rradius 111.952 -0 0
rwrist -63.1767 0 0
rhand -10.2575 -25.0032 0.000344396
rfingers 7.12502 -0 0
rthumb 15.7356 -54.3834 0.000329564
1027
root 0.24098 13.5258 -35.3374 12.2888 -28.1769 -17.6497
lfemur -70.1614 36.1034 -4.22081
ltibia 82.5287 -0 0
lfoot -12.9917 -8.48939 0.0012093
ltoes -6.06057 0 0
rfemur 10.395 -8.639 8.62294
rtibia 36.1801 -0 0
rfoot -22.4571 -26.2295 0.000505431
rtoes -31.7199 0 0
lowerback 10.1836 -0.824757 5.29108
upperback -1.85499 0.0981151 8.18161
thorax -7.75153 -0.0212946 5.77384
lowerneck -5.09 8.3879 3.29351
upperneck 8.06537 11.0449 -0.927915
head 3.77977 5.52728 -0.317038
lclavicle -6.97237e-14 5.08889e-14 0
lhumerus 83.3341 -7.34839 27.619
lradius 94.985 -0 0
lwrist 9.53087 0 0
lhand -36.8275 29.8883 -0.00673897
lfingers 7.12502 -0 0
lthumb -9.90829 59.6366 -0.00670072
rclavicle -6.97237e-14 5.08889e-14 0
rhumerus -77.6066 23.2209 -95.1127
rradius 111.939 -0 0
rwrist -63.2007 0 0
rhand -10.2435 -24.9942 0.000270245
rfingers 7.12502 -0 0
rthumb 15.7492 -54.3734 0.000258881
1028
root 0.239702 13.522 -35.3295 12.3003 -28.167 -17.6494
lfemur -70.2003 36.1283 -4.21773
ltibia 82.6371 -0 0
lfoot -13.0717 -8.51831 0.000742281
ltoes -6.01185 0 0
rfemur 10.4347 -8.66136 8.59592
rtibia 36.1742 -0 0
rfoot -22.492 -26.2223 0.000369671
rtoes -31.6687 0 0
lowerback 10.1601 -0.82666 5.26739
upperback -1.86314 0.0907281 8.17861
thorax -7.74632 -0.0238694 5.78483
lowerneck -4.97886 8.38858 3.29883
upperneck 8.00658 11.0529 -0.979687
head 3.74219 5.53012 -0.340584
lclavicle -6.97237e-14 5.08889e-14 0
lhumerus 83.2778 -6.7611 28.0086
lradius 94.5334 -0 0
lwrist 9.48887 0 0
lhand -36.7433 29.8667 -0.00377979
lfingers 7.12502 -0 0
lthumb -9.82705 59.6182 -0.00376403
rclavicle -6.97237e-14 5.08889e-14 0
rhumerus -77.6385 23.2716 -95.1409
rradius 111.923 -0 0
rwrist -63.2304 0 0
rhand -10.2282 -24.9871 0.000187652
rfingers 7.12502 -0 0
rthumb 15.7639 -54.3651 0.000179978
1029
root 0.238423 13.5183 -35.3215 12.3115 -28.1619 -17.6476
lfemur -70.2435 36.1633 -4.21413
ltibia 82.775 -0 0
lfoot -13.1772 -8.54183 0.000331894
ltoes -5.97208 0 0
rfemur 10.4825 -8.68654 8.55596
rtibia 36.1756 -0 0
rfoot -22.538 -26.2112 0.0001995
rtoes -31.6009 0 0
lowerback 10.1313 -0.826325 5.23756
upperback -1.87093 0.0847265 8.1712
thorax -7.73763 -0.0255672 5.79391
lowerneck -4.85325 8.38596 3.31218
upperneck 7.93451 11.057 -1.04064
head 3.69834 5.53096 -0.369544
lclavicle -6.97237e-14 5.08889e-14 0
lhumerus 83.227 -5.89775 28.4771
lradius 94.0083 -0 0
lwrist 9.40367 0 0
lhand -36.6602 29.8312 -0.00148921
lfingers 7.12502 -0 0
lthumb -9.74681 59.5861 -0.00148685
rclavicle -6.97237e-14 5.08889e-14 0
rhumerus -77.6702 23.3211 -95.1708
rradius 111.903 -0 0
rwrist -63.2663 0 0
rhand -10.2115 -24.9817 9.73292e-05
rfingers 7.12502 -0 0
rthumb 15.7799 -54.3585 9.34759e-05
1030
root 0.237145 13.5145 -35.3135 372.322 -28.1622 342.356
lfemur -70.2916 36.2099 -4.21042
ltibia 82.9461 0 0
lfoot -13.3115 -8.55889 0
ltoes -5.94344 0 0
rfemur 10.5397 -8.7145 8.50141
rtibia 36.1771 0 0
rfoot -22.5961 -26.1957 0
rtoes -31.515 0 0
lowerback 10.0963 -0.823336 5.20065
upperback -1.87841 0.0804512 8.15872
thorax -7.72506 -0.0261885 5.80081
lowerneck -4.71251 8.37963 3.33436
upperneck 7.84821 11.0565 -1.1113
head 3.64785 5.52955 -0.404292
lclavicle -6.97237e-14 5.08889e-14 0
lhumerus 83.1883 -4.71662 29.0316
lradius 93.4031 0 0
lwrist 9.26705 0 0
lhand -36.5799 29.778 0
lfingers 7.12502 0 0
lthumb -9.66936 59.5361 0
rclavicle -6.97237e-14 5.08889e-14 0
rhumerus -77.7017 23.369 -95.2023
rradius 111.878 0 0
rwrist -63.3092 0 0
rhand -10.1936 -24.9779 0
rfingers 7.12502 0 0
rthumb 15.7972 -54.3533 0
1031
root 0.234983 13.5108 -35.3097 12.3241 -28.1674 -17.6423
lfemur -70.3288 36.2646 -4.19812
ltibia 83.1128 -0 0
lfoot -13.451 -8.63101 2.08777e-05
ltoes -5.88752 0 0
rfemur 10.5953 -8.74551 8.44454
rtibia 36.1992 -0 0
rfoot -22.6741 -26.1714 1.39211e-05
rtoes -31.4112 0 0
lowerback 10.0564 -0.82209 5.16523
upperback -1.88439 0.0734947 8.14837
thorax -7.7079 -0.0281796 5.80944
lowerneck -4.56581 8.37198 3.36518
upperneck 7.76102 11.0542 -1.1872
head 3.59684 5.52733 -0.442476
lclavicle 6.17475e-14 1.21259e-13 0
lhumerus 83.1623 -3.4766 29.5797
lradius 92.8139 -0 0
lwrist 9.10725 0 0
lhand -36.5032 29.727 0.00107371
lfingers 7.12502 -0 0
lthumb -9.59535 59.4882 0.00107379
rclavicle 6.17475e-14 1.21259e-13 0
rhumerus -77.7306 23.4103 -95.2296
rradius 111.856 -0 0
rwrist -63.3447 0 0
rhand -10.1814 -24.9699 4.09044e-05
rfingers 7.12502 -0 0
rthumb 15.8089 -54.3443 3.291e-05
1032
root 0.232821 13.5071 -35.3058 12.3115 -28.1763 -17.646
lfemur -70.3407 36.3223 -4.16992
ltibia 83.2382 -0 0
lfoot -13.5707 -8.80853 0.000359193
ltoes -5.77131 0 0
rfemur 10.6385 -8.7794 8.39794
rtibia 36.2534 -0 0
rfoot -22.7765 -26.1355 0.000466384
rtoes -31.2929 0 0
lowerback 10.0138 -0.826662 5.13982
upperback -1.88777 0.0599648 8.14689
thorax -7.68622 -0.0337396 5.82317
lowerneck -4.42312 8.36551 3.40319
upperneck 7.68591 11.0529 -1.26318
head 3.55134 5.5258 -0.481285
lclavicle 6.17475e-14 1.21259e-13 0
lhumerus 83.1407 -2.45209 30.0311
lradius 92.3339 -0 0
lwrist 8.95882 0 0
lhand -36.4294 29.6996 0.00216946
lfingers 7.12502 -0 0
lthumb -9.5241 59.4639 0.00216361
rclavicle 6.17475e-14 1.21259e-13 0
rhumerus -77.7548 23.4408 -95.2474
rradius 111.845 -0 0
rwrist -63.3598 0 0
rhand -10.1809 -24.9533 0.000337662
rfingers 7.12502 -0 0
rthumb 15.8094 -54.3278 0.000300601
